<svg width="89" height="80" viewBox="0 0 89 80" fill="none" xmlns="http://www.w3.org/2000/svg">
<path d="M30.0375 17.0135C30.0375 18.7511 28.6469 20.199 26.9781 20.199H13.4891C11.8203 20.199 10.4297 18.7511 10.4297 17.0135V13.104C10.4297 11.3665 11.8203 9.91852 13.4891 9.91852H26.9781C28.6469 9.91852 30.0375 11.3665 30.0375 13.104V17.0135ZM84.4109 16.7239C84.4109 17.5927 83.7156 18.4615 82.7422 18.4615H75.5109C74.6766 18.4615 73.8422 17.7375 73.8422 16.7239V14.6968C73.8422 13.828 74.5375 12.9592 75.5109 12.9592H82.7422C83.5766 12.9592 84.4109 13.6832 84.4109 14.6968V16.7239ZM89 66.5338C89 70.8777 85.6625 74.3528 81.4906 74.3528H7.50938C3.3375 74.3528 0 70.8777 0 66.5338V64.2171H89V66.5338Z" fill="#CBCBCB" fill-opacity="0.77"/>
<path d="M0 22.8056C0 18.4617 3.3375 14.9866 7.50938 14.9866H81.3516C85.5234 14.9866 88.8609 18.4617 88.8609 22.8056V25.1223H0V22.8056Z" fill="#51575B"/>
<path d="M0 24.8327H89V65.81H0V24.8327Z" fill="#7A7A7A"/>
<path d="M76.0673 19.7647H31.4282L35.8782 4.12669C36.2954 3.25791 38.1032 1.80995 39.2157 1.52036C46.0298 -0.506786 61.3267 -0.506786 68.1407 1.52036C69.2532 1.80995 71.061 3.25791 71.4782 4.12669L76.0673 19.7647Z" fill="#51575B"/>
<path d="M73.8423 36.561H33.5142L37.547 15.4208C37.8251 14.2624 39.6329 12.3801 40.6063 11.9457C46.7251 9.33934 60.6313 9.33934 66.7501 11.9457C67.7235 12.3801 69.3923 14.2624 69.8095 15.4208L73.8423 36.561Z" fill="#7A7A7A"/>
<path d="M84.272 48.1448C84.272 65.8099 70.5048 80 53.6782 80C36.8517 80 23.0845 65.8099 23.0845 48.1448C23.0845 30.6245 36.8517 16.2897 53.6782 16.2897C70.6438 16.2897 84.272 30.6245 84.272 48.1448Z" fill="#788287"/>
<path d="M80.9344 48.1447C80.9344 63.7827 68.6969 76.5247 53.6781 76.5247C38.6594 76.5247 26.4219 63.7827 26.4219 48.1447C26.4219 32.5067 38.6594 19.7646 53.6781 19.7646C68.6969 19.9094 80.9344 32.5067 80.9344 48.1447Z" fill="#CBCBCB" fill-opacity="0.77"/>
<path d="M53.6783 71.1673C65.8899 71.1673 75.7893 60.8597 75.7893 48.1447C75.7893 35.4297 65.8899 25.1221 53.6783 25.1221C41.4668 25.1221 31.5674 35.4297 31.5674 48.1447C31.5674 60.8597 41.4668 71.1673 53.6783 71.1673Z" fill="#7A7A7A"/>
</svg>
